<?xml version="1.0" standalone="no"?><!DOCTYPE svg PUBLIC "-//W3C//DTD SVG 1.1//EN" "http://www.w3.org/Graphics/SVG/1.1/DTD/svg11.dtd"><svg t="1560496098089" class="icon" style="" viewBox="0 0 1024 1024" version="1.1" xmlns="http://www.w3.org/2000/svg" p-id="6685" xmlns:xlink="http://www.w3.org/1999/xlink" width="64" height="64"><defs><style type="text/css"></style></defs><path d="M846.6 217.1c-4.6-3.6-10.4-5.5-16.3-5.5-3 0-5.9 0.5-8.7 1.4L80.5 442.4c-10.3 3.6-17.3 12.6-18 23.2-0.6 10.6 5.2 20.5 14.8 25.1l255.8 123.7-3.9 164.7c-0.3 10 5 19.2 14 23.9 3.9 2.1 8.2 3.2 12.6 3.2 5.3 0 10.4-1.5 14.9-4.5l117-105.1c6.5-4.4 10.4-10.4 11.7-17.4 1.2-6.9-0.3-13.9-4.4-19.6-5-7-13.1-11.2-21.8-11.2-5.2 0-10.3 1.5-14.7 4.4L384.1 731l2.8-131.8c0.3-10.3-5.5-19.8-14.9-24.4L158.7 471.7l641-195.9-66.7 508-167.4-100c-4.1-2.4-8.8-3.6-13.5-3.6-9.4 0-18.1 4.9-22.9 12.8-3.6 6-4.7 13.1-2.9 19.8 1.8 6.8 6.1 12.6 12.2 16.1l203.3 121c4.1 2.4 8.8 3.6 13.5 3.6 4.2 0 8.4-1 12.1-2.9 8.2-4.1 13.5-11.9 14.4-20.9l74.9-589.4c0.4-4.3-0.2-8.4-1.7-12.1l-8.4-11.1z m-98.2 157c5.2-5.1 8-11.9 8-19.1 0-7.2-2.9-14-8.1-19.1-5.1-5-11.9-7.8-19.2-7.8-7.1 0-13.9 2.7-19 7.6L440.5 567l-0.5 0.4c-5.2 5.1-8 11.9-8 19.1 0 7.2 2.9 14 8.1 19.1 5.1 5 11.9 7.8 19.2 7.8 7.2 0 13.9-2.7 19-7.6L748 374.5l0.4-0.4z" fill="#36B4EE" p-id="6686"></path></svg>