<?xml version="1.0" standalone="no"?><!DOCTYPE svg PUBLIC "-//W3C//DTD SVG 1.1//EN" "http://www.w3.org/Graphics/SVG/1.1/DTD/svg11.dtd"><svg t="1560495071468" class="icon" style="" viewBox="0 0 1024 1024" version="1.1" xmlns="http://www.w3.org/2000/svg" p-id="4615" xmlns:xlink="http://www.w3.org/1999/xlink" width="64" height="64"><defs><style type="text/css"></style></defs><path d="M971.815385 784.738462l-154.781539 160.68923-154.781538-160.68923a116.342154 116.342154 0 0 1 0-160.689231 106.732308 106.732308 0 0 1 154.781538 0 106.732308 106.732308 0 0 1 154.781539 0 116.342154 116.342154 0 0 1 0 160.689231zM472.615385 512a216.615385 216.615385 0 1 1 216.615384-216.615385 216.615385 216.615385 0 0 1-216.615384 216.615385z m98.461538 78.769231c7.089231 0 14.178462 0.393846 21.267692 0.787692a183.748923 183.748923 0 0 0 7.089231 241.821539L705.378462 945.230769H19.692308a354.461538 354.461538 0 0 1 354.461538-354.461538h196.923077z" fill="#d81e06" p-id="4616"></path></svg>