<?xml version="1.0" standalone="no"?><!DOCTYPE svg PUBLIC "-//W3C//DTD SVG 1.1//EN" "http://www.w3.org/Graphics/SVG/1.1/DTD/svg11.dtd"><svg t="1560494548606" class="icon" style="" viewBox="0 0 1024 1024" version="1.1" xmlns="http://www.w3.org/2000/svg" p-id="2749" xmlns:xlink="http://www.w3.org/1999/xlink" width="64" height="64"><defs><style type="text/css"></style></defs><path d="M0 511.986559C0 794.753892 229.232667 1023.986559 512 1023.986559s512-229.192345 512-512S794.740451 0 512 0 0 229.232667 0 511.986559z m0 0" fill="#F6ED5F" p-id="2750"></path><path d="M67.808784 516.018796c0 245.321293 198.923687 444.191216 444.191216 444.191216s444.191216-198.923687 444.191216-444.191216S757.321293 71.841021 512 71.841021s-444.191216 198.923687-444.191216 444.191216z m0 0" fill="#F1D239" p-id="2751"></path><path d="M86.625889 609.52637c0-285.536135 231.49072-517.295671 517.255349-517.295671 16.128948 0 32.056283 0.793007 47.674481 2.123644C418.505867 17.54023 167.136219 144.152469 90.322106 376.973827a442.981545 442.981545 0 0 0-2.110204 271.759326c-1.061822-12.983803-1.586013-25.954165-1.586013-39.193343z m0 0" fill="#E3B117" p-id="2752"></path><path d="M138.534219 241.88045q57.217442-14.287559 71.531882-71.505 14.287559 57.217442 71.505001 71.505-57.217442 14.301-71.505001 71.518442-14.301-57.217442-71.518441-71.518442z m0 0M778.813115 201.450555q94.166172-23.440737 117.60691-117.606909 23.440737 94.152731 117.606909 117.606909-94.166172 23.454178-117.606909 117.539706-23.440737-94.152731-117.60691-117.60691z m-6.720395-6.720395" fill="#F5D44B" p-id="2753"></path><path d="M317.592419 312.740293h73.507678l139.071851 199.515082h7.849421l139.152495-199.515082h73.507679L564.298113 562.134145v10.497257h152.257265v31.505211H564.298113v52.499724h152.257265v31.505211H564.298113v73.507679h-60.376028v-73.507679H349.030426v-31.505211h154.891659v-52.499724H349.030426v-31.505211h154.891659v-10.497257z" fill="#EDB91E" p-id="2754"></path></svg>