<?xml version="1.0" standalone="no"?><!DOCTYPE svg PUBLIC "-//W3C//DTD SVG 1.1//EN" "http://www.w3.org/Graphics/SVG/1.1/DTD/svg11.dtd"><svg t="1560494997404" class="icon" style="" viewBox="0 0 1024 1024" version="1.1" xmlns="http://www.w3.org/2000/svg" p-id="3622" xmlns:xlink="http://www.w3.org/1999/xlink" width="64" height="64"><defs><style type="text/css"></style></defs><path d="M892.1088 1024H144.7936c-72.704 0-131.8912-59.1872-131.8912-131.8912V133.9392C12.9024 61.2352 72.0896 2.048 144.7936 2.048h747.3152C964.8128 2.048 1024 61.2352 1024 133.9392v758.1696c0 72.704-59.1872 131.8912-131.8912 131.8912zM144.7936 76.5952c-31.5392 0-57.344 25.6-57.344 57.344v758.1696c0 31.5392 25.6 57.344 57.344 57.344h747.3152c31.5392 0 57.344-25.6 57.344-57.344V133.9392c0-31.5392-25.6-57.344-57.344-57.344H144.7936z m0 0" fill="#3E8FEB" p-id="3623"></path><path d="M209.3056 257.024c0 22.1184 18.0224 40.1408 40.1408 40.1408 22.3232 0 40.1408-18.0224 40.1408-40.1408 0-22.3232-18.0224-40.1408-40.1408-40.1408s-40.1408 18.0224-40.1408 40.1408z m0 0M831.6928 294.2976H349.5936c-20.6848 0-37.2736-16.5888-37.2736-37.2736s16.5888-37.2736 37.2736-37.2736h482.0992c20.6848 0 37.2736 16.5888 37.2736 37.2736s-16.7936 37.2736-37.2736 37.2736z m0 0M209.3056 510.1568c0 22.1184 18.0224 40.1408 40.1408 40.1408 22.3232 0 40.1408-18.0224 40.1408-40.1408 0-22.3232-18.0224-40.1408-40.1408-40.1408-22.1184-0.2048-40.1408 17.8176-40.1408 40.1408z m0 0M831.6928 547.4304H349.5936c-20.6848 0-37.2736-16.5888-37.2736-37.2736s16.5888-37.2736 37.2736-37.2736h482.0992c20.6848 0 37.2736 16.5888 37.2736 37.2736 0 20.48-16.7936 37.2736-37.2736 37.2736z m0 0M209.3056 763.0848c0 22.1184 18.0224 40.1408 40.1408 40.1408 22.3232 0 40.1408-18.0224 40.1408-40.1408 0-22.3232-18.0224-40.1408-40.1408-40.1408s-40.1408 18.0224-40.1408 40.1408z m0 0M831.6928 800.3584H349.5936c-20.6848 0-37.2736-16.5888-37.2736-37.2736s16.5888-37.2736 37.2736-37.2736h482.0992c20.6848 0 37.2736 16.5888 37.2736 37.2736s-16.7936 37.2736-37.2736 37.2736z m0 0" fill="#3E8FEB" p-id="3624"></path></svg>